<?xml version="1.0" encoding="iso-8859-1"?>
<!-- Generator: Adobe Illustrator 19.0.0, SVG Export Plug-In . SVG Version: 6.00 Build 0)  -->
<svg version="1.1" id="Capa_1" xmlns="http://www.w3.org/2000/svg" xmlns:xlink="http://www.w3.org/1999/xlink" x="0px" y="0px"
	 viewBox="0 0 338.4 338.4" style="enable-background:new 0 0 338.4 338.4;" xml:space="preserve">
<g>
	<g>
		<g>
			<path d="M233.8,224.8H106.52c-2.576,0.422-4.595,2.441-5.017,5.017c-0.543,3.314,1.703,6.44,5.017,6.983H233.8
				c0.651,0.107,1.315,0.107,1.966,0c3.314-0.543,5.56-3.669,5.017-6.983C240.24,226.503,237.114,224.257,233.8,224.8z"/>
			<path d="M233.8,101.76H106.52c-2.576,0.422-4.595,2.441-5.017,5.017c-0.543,3.314,1.703,6.44,5.017,6.983H233.8
				c0.651,0.107,1.315,0.107,1.966,0c3.314-0.543,5.56-3.669,5.017-6.983C240.24,103.463,237.114,101.217,233.8,101.76z"/>
			<path d="M233.8,194.04H106.52c-2.576,0.422-4.595,2.441-5.017,5.017c-0.543,3.314,1.703,6.44,5.017,6.983H233.8
				c0.651,0.107,1.315,0.107,1.966,0c3.314-0.543,5.56-3.669,5.017-6.983C240.24,195.743,237.114,193.497,233.8,194.04z"/>
			<path d="M231.32,1.88c-1.145-1.177-2.718-1.841-4.36-1.84H67.76V0C51.93,0.022,39.102,12.85,39.08,28.68v281.04
				c0.022,15.83,12.85,28.658,28.68,28.68h202.88c15.83-0.022,28.658-12.85,28.68-28.68V74.2v-0.28v-0.28V73.2v-2.48v-0.84
				L231.32,1.88z M233.04,20.84l47.4,47.4H245.8c-7.029-0.044-12.716-5.731-12.76-12.76V20.84z M289.04,309.72
				c-0.044,9.083-7.397,16.436-16.48,16.48H67.76c-9.083-0.044-16.436-7.397-16.48-16.48V28.68
				c0.044-9.083,7.397-16.436,16.48-16.48h153.08v43.08c0.022,13.776,11.184,24.938,24.96,24.96h43.24V309.72z"/>
			<path d="M233.8,132.52H106.52c-0.651-0.107-1.315-0.107-1.966,0c-3.314,0.543-5.56,3.669-5.017,6.983s3.669,5.56,6.983,5.017
				H233.8c0.651,0.107,1.315,0.107,1.966,0c3.314-0.543,5.56-3.669,5.017-6.983C240.24,134.223,237.114,131.977,233.8,132.52z"/>
			<path d="M233.8,163.28H106.52c-2.576,0.422-4.595,2.441-5.017,5.017c-0.543,3.314,1.703,6.44,5.017,6.983H233.8
				c0.651,0.107,1.315,0.107,1.966,0c3.314-0.543,5.56-3.669,5.017-6.983C240.24,164.983,237.114,162.737,233.8,163.28z"/>
		</g>
	</g>
</g>
<g>
</g>
<g>
</g>
<g>
</g>
<g>
</g>
<g>
</g>
<g>
</g>
<g>
</g>
<g>
</g>
<g>
</g>
<g>
</g>
<g>
</g>
<g>
</g>
<g>
</g>
<g>
</g>
<g>
</g>
</svg>
